<svg width="70" height="70" viewBox="0 0 70 70" fill="none" xmlns="http://www.w3.org/2000/svg">
<path d="M35 1.46689C53.5121 1.46689 68.5331 16.5172 68.5331 35C68.5331 53.4828 53.4828 68.5331 35 68.5331C16.4878 68.5331 1.46689 53.4828 1.46689 35C1.46689 16.5172 16.5172 1.46689 35 1.46689ZM35 0C15.6664 0 0 15.6664 0 35C0 54.3336 15.6664 70 35 70C54.3336 70 70 54.3336 70 35C70.0293 15.6664 54.3336 0 35 0Z" fill="#E30613"/>
<path fill-rule="evenodd" clip-rule="evenodd" d="M15.4611 20.2432C13.5542 20.2432 11.9993 21.798 11.9993 23.705V42.6279C11.9993 44.5348 13.5542 46.0898 15.4611 46.0898H18.835C19.4217 48.1434 21.2993 49.669 23.529 49.669C25.7587 49.669 27.6363 48.1434 28.2231 46.0898H47.2926C47.8794 48.1434 49.757 49.669 51.9867 49.669C54.2163 49.669 56.0939 48.1434 56.6807 46.0898H57.1208C58.6757 46.0898 59.9665 44.7989 59.9665 43.244V36.3496C59.9959 36.2029 59.9665 36.0269 59.9372 35.8802C59.9372 35.8508 59.9372 35.8509 59.9079 35.8215C59.8492 35.6748 59.7905 35.5575 59.6732 35.4401L53.8349 27.3722C53.6296 27.0789 53.3069 26.9322 52.9548 26.9322H45.8844V23.7343C45.8844 21.8274 44.3295 20.2725 42.4225 20.2725L15.4611 20.2432ZM15.4611 22.4435H42.4812C43.1853 22.4435 43.7721 23.0009 43.7721 23.7343V43.9481H28.3697C27.959 41.6597 25.964 39.9288 23.5583 39.9288C21.182 39.9288 19.1577 41.6597 18.7469 43.9481H15.4611C14.757 43.9481 14.1703 43.3907 14.1703 42.6572V23.7343C14.1703 23.0009 14.7277 22.4435 15.4611 22.4435ZM45.9137 29.1031H52.4267L57.7956 36.555V43.2733C57.7956 43.6547 57.5022 43.9481 57.1208 43.9481H56.7981C56.3873 41.6597 54.3924 39.9288 51.9867 39.9288C49.581 39.9288 47.586 41.6597 47.1753 43.9481H45.9137V29.1031ZM23.529 42.0998C25.0252 42.0998 26.2281 43.3027 26.2281 44.7989V44.8576C26.1988 46.3245 25.0252 47.498 23.529 47.498C22.0328 47.498 20.8299 46.2951 20.8299 44.7989C20.8299 43.3027 22.0328 42.0998 23.529 42.0998ZM52.016 42.0998C53.5122 42.0998 54.7151 43.3027 54.7151 44.7989C54.7151 46.2951 53.5122 47.498 52.016 47.498C50.5198 47.498 49.3169 46.2951 49.3169 44.7989C49.3169 43.3027 50.4904 42.0998 52.016 42.0998Z" fill="#E30613"/>
<path fill-rule="evenodd" clip-rule="evenodd" d="M29.7193 27.9004C29.1032 27.9004 28.6338 28.3698 28.6045 28.9859C28.6045 29.602 29.0739 30.0714 29.69 30.1007H29.7193H40.4276C41.0437 30.1007 41.5131 29.6313 41.5425 29.0152C41.5718 28.3991 41.0731 27.9297 40.457 27.9004H40.4276H29.7193Z" fill="#E30613"/>
<path fill-rule="evenodd" clip-rule="evenodd" d="M24.8198 32.8C24.2037 32.8 23.7343 33.2694 23.705 33.8855C23.6756 34.5016 24.1744 34.971 24.7905 35.0004H24.8198H40.4275C41.0436 35.0004 41.513 34.5309 41.5423 33.9149C41.5423 33.2988 41.0729 32.8294 40.4568 32.8H40.4275H24.8198Z" fill="#E30613"/>
</svg>
