<svg width="60" height="60" viewBox="0 0 60 60" fill="none" xmlns="http://www.w3.org/2000/svg">
<path fill-rule="evenodd" clip-rule="evenodd" d="M30 60C46.5685 60 60 46.5685 60 30C60 13.4315 46.5685 0 30 0C13.4315 0 0 13.4315 0 30C0 46.5685 13.4315 60 30 60ZM30 56.6667C44.7276 56.6667 56.6667 44.7276 56.6667 30C56.6667 15.2724 44.7276 3.33333 30 3.33333C15.2724 3.33333 3.33333 15.2724 3.33333 30C3.33333 44.7276 15.2724 56.6667 30 56.6667Z" fill="#27AE60"/>
<path fill-rule="evenodd" clip-rule="evenodd" d="M39.6956 22.485L28.0129 34.2324L21.032 27.2123C20.8694 27.0429 20.6749 26.9079 20.4598 26.8149C20.2448 26.7219 20.0134 26.6729 19.7793 26.6707C19.5452 26.6686 19.313 26.7133 19.0963 26.8023C18.8796 26.8913 18.6826 27.0229 18.517 27.1892C18.3514 27.3556 18.2204 27.5535 18.1316 27.7713C18.0429 27.9892 17.9981 28.2225 18.0001 28.4579C18.002 28.6933 18.0505 28.926 18.1428 29.1423C18.2351 29.3586 18.3693 29.5543 18.5377 29.7179L26.7657 37.9906C27.0964 38.323 27.5448 38.5096 28.0123 38.5096C28.4798 38.5096 28.9282 38.323 29.2588 37.9906L42.1887 24.9906C42.5041 24.6552 42.6769 24.2092 42.6704 23.7476C42.6639 23.2861 42.4786 22.8453 42.1539 22.5189C41.8292 22.1926 41.3906 22.0065 40.9316 22.0002C40.4725 21.9939 40.029 22.1677 39.6956 22.485Z" fill="#27AE60"/>
</svg>
