<svg width="47" height="32" viewBox="0 0 47 32" fill="none" xmlns="http://www.w3.org/2000/svg">
<path d="M46.0741 6.94481C46.0741 6.94481 45.6209 3.82213 44.2339 2.44708C42.4753 0.641777 40.4992 0.632906 39.5972 0.52645C33.1157 0.0695801 23.3981 0.0695801 23.3981 0.0695801H23.38C23.38 0.0695801 13.6624 0.0695801 7.18092 0.52645C6.27896 0.632906 4.3028 0.641777 2.5442 2.44708C1.15726 3.82213 0.704012 6.94481 0.704012 6.94481C0.704012 6.94481 0.241699 10.6086 0.241699 14.2769V17.7145C0.241699 21.3828 0.704012 25.0466 0.704012 25.0466C0.704012 25.0466 1.15726 28.1693 2.5442 29.5444C4.30733 31.3497 6.61889 31.292 7.64777 31.4827C11.3508 31.8287 23.3891 31.9396 23.3891 31.9396C23.3891 31.9396 33.1157 31.9263 39.5972 31.465C40.5037 31.3585 42.4753 31.3497 44.2339 29.5444C45.6209 28.1693 46.0741 25.0466 46.0741 25.0466C46.0741 25.0466 46.5364 21.3784 46.5364 17.7145V14.2769C46.5364 10.6086 46.0741 6.94481 46.0741 6.94481ZM18.6073 21.8796V9.14932L31.1169 15.5366L18.6073 21.8796Z" fill="#282928" fill-opacity="0.8"/>
<path d="M18.6073 21.8794L31.1169 15.5365L18.6073 9.14929V21.8794Z" fill="white"/>
<path opacity="0.12" fill-rule="evenodd" clip-rule="evenodd" d="M18.6073 9.14929L29.5759 16.3172L31.1169 15.5365L18.6073 9.14929Z" fill="black"/>
</svg>
