<?xml version="1.0" encoding="utf-8"?><svg viewBox="0 0 184 100" xmlns="http://www.w3.org/2000/svg" xmlns:xlink="http://www.w3.org/1999/xlink"><style>:root>svg{display:none}:root>svg:target{display:block}</style><svg fill="none" viewBox="0 0 100 100" id="about--svg--about-play-icon" xmlns="http://www.w3.org/2000/svg"><circle cx="50" cy="50" r="49" stroke="#fff" stroke-width="2"/><path d="m38.772 29.228 31.406 20.95-31.406 20.95v-41.9Z" fill="#fff"/></svg><svg fill="none" viewBox="0 0 28 28" id="about--svg--ok-icon" xmlns="http://www.w3.org/2000/svg"><path d="M26 12.903v1.104a12 12 0 1 1-7.116-10.968" stroke="#27AE60" stroke-width="3" stroke-linecap="round" stroke-linejoin="round"/><path d="m26 4.571-11.868 12-3.56-3.596" stroke="#27AE60" stroke-width="3" stroke-linecap="round" stroke-linejoin="round"/></svg><svg fill="none" viewBox="0 0 25 25" id="home--svg--close-menu" xmlns="http://www.w3.org/2000/svg"><path stroke="#999" stroke-width="2" d="m1.454 1.54 22 22M23.454 1.46l-22 22"/></svg><svg fill="none" viewBox="0 0 42 42" id="home--svg--hero-card-icon1" xmlns="http://www.w3.org/2000/svg"><path d="M16.4 24.346a.494.494 0 0 0-.714 0L9.98 30.223a.53.53 0 0 0 0 .734.496.496 0 0 0 .714 0l5.707-5.876a.53.53 0 0 0 0-.735ZM17.113 25.815l-5.707 5.877a.53.53 0 0 0 0 .734.496.496 0 0 0 .713 0l5.707-5.876a.53.53 0 0 0 0-.735.494.494 0 0 0-.713 0Z" fill="#27AE60"/><path d="m26.389 23.238-2.673-2.752 6.124-6.305h1.218a.495.495 0 0 0 .357-.152l2.14-2.204a.527.527 0 0 0 0-.734l-2.854-2.939a.494.494 0 0 0-.713 0l-2.14 2.204a.527.527 0 0 0-.148.367v1.254l-6.124 6.305-2.672-2.752c.64-2.034.126-4.277-1.354-5.8a5.451 5.451 0 0 0-5.42-1.46.513.513 0 0 0-.352.368.532.532 0 0 0 .13.5l1.894 1.949-.588 2.258-2.194.606-1.893-1.949a.492.492 0 0 0-.484-.135.51.51 0 0 0-.358.363c-.539 1.987.005 4.125 1.417 5.58a5.438 5.438 0 0 0 5.634 1.394l2.672 2.752-.662.681a2.942 2.942 0 0 0-1.303-.305c-.809 0-1.568.324-2.14.913l-4.995 5.14a3.188 3.188 0 0 0 0 4.409l.714.734a2.963 2.963 0 0 0 4.28 0l4.994-5.142a3.14 3.14 0 0 0 .887-2.203c0-.473-.105-.928-.297-1.342l.662-.682 2.673 2.752c-.64 2.034-.126 4.277 1.354 5.8a5.473 5.473 0 0 0 3.926 1.671c.498 0 1.001-.069 1.494-.21a.511.511 0 0 0 .352-.369.53.53 0 0 0-.131-.499l-1.893-1.95.587-2.258 2.194-.605 1.893 1.95c.127.13.312.182.485.134a.51.51 0 0 0 .358-.362c.538-1.987-.005-4.126-1.418-5.58-1.48-1.525-3.659-2.055-5.633-1.395Zm-10.565-5.001a.493.493 0 0 0-.54-.117 4.447 4.447 0 0 1-4.868-1.044A4.761 4.761 0 0 1 9.1 13.443l1.412 1.455a.494.494 0 0 0 .488.134l2.757-.76a.511.511 0 0 0 .356-.368l.739-2.837a.529.529 0 0 0-.13-.502L13.307 9.11a4.467 4.467 0 0 1 3.528 1.354c1.276 1.313 1.674 3.28 1.02 5.003-.13.32-.13.32 1.735 2.24l1.272 1.31-2.14 2.204-2.899-2.984Zm12.737-5.677a.527.527 0 0 0 .148-.368v-1.254l1.636-1.684 2.14 2.204-1.636 1.684h-1.218a.495.495 0 0 0-.356.152L18.897 23.98l-.714-.734 10.378-10.686ZM18.183 27.65l-4.994 5.143c-.762.785-2.091.785-2.854 0l-.713-.735a2.124 2.124 0 0 1 0-2.939l4.994-5.14a1.974 1.974 0 0 1 2.854 0l.713.734c.381.392.591.914.591 1.469s-.21 1.076-.591 1.468ZM32.625 29l-1.413-1.455a.49.49 0 0 0-.488-.135l-2.756.76a.513.513 0 0 0-.357.368l-.738 2.838c-.047.18.003.37.13.502l1.414 1.455a4.47 4.47 0 0 1-3.529-1.355c-1.275-1.312-1.673-3.28-1.015-5.011a.529.529 0 0 0-.113-.556l-2.898-2.985 2.14-2.204 2.899 2.984a.491.491 0 0 0 .54.116 4.445 4.445 0 0 1 4.868 1.045A4.759 4.759 0 0 1 32.625 29Z" fill="#27AE60"/><circle cx="21" cy="21" r="20" stroke="#27AE60" stroke-width="2"/></svg><svg fill="none" viewBox="0 0 42 42" id="home--svg--hero-card-icon2" xmlns="http://www.w3.org/2000/svg"><circle cx="21" cy="21" r="20" stroke="#27AE60" stroke-width="2"/><path d="m34.294 15.17-1.536.886-.445-.77-1.536.886-.334-.578-2.571-.315-1.28.74-2.448-4.24a1.334 1.334 0 0 0-1.82-.492l-.383.222-.223-.386a1.334 1.334 0 0 0-1.82-.491L9.147 16.839c-.5.29-.736.856-.636 1.396l-3.143 1.814 1.335 2.313 3.072-1.774.931 1.613a1.333 1.333 0 0 0-.141 1.529l1.558 2.698-2.304 1.33 3.56 6.167 2.304-1.33.223.386a1.334 1.334 0 0 0 1.82.49l11.52-6.65c.5-.289.735-.856.635-1.395l.455-.263c.5-.288.736-.856.636-1.395l1.351-.78 1.013-2.383-.334-.579 1.536-.886-.445-.771 1.536-.887-1.335-2.313ZM20.95 11.566l.223.385-1.536.887 1.78 3.083-8.448 4.878-2.225-3.855 9.6-5.542a.445.445 0 0 1 .606.164ZM9.592 17.61l.384-.221 2.225 3.854-.768.444-2.003-3.47a.445.445 0 0 1 .162-.607Zm-2.566 3.537-.445-.77 2.304-1.33.445.77-2.304 1.33Zm5.542 6.052.569.985a1.75 1.75 0 0 0-.892.23 1.75 1.75 0 0 0-.644.657l-.57-.986 1.537-.886Zm1.335 2.313a.89.89 0 0 1-.323 1.214.89.89 0 0 1-.89-1.542.89.89 0 0 1 1.213.328Zm-.2 3.199-.57-.985c.304.001.611-.067.892-.23a1.75 1.75 0 0 0 .644-.657l.57.985-1.537.887Zm15.259-7.268a.445.445 0 0 1-.162.607l-9.6 5.542-5.118-8.865-.768.443 5.118 8.866-1.152.665a.445.445 0 0 1-.606-.164l-5.341-9.25a.445.445 0 0 1 .161-.608l9.6-5.542 5.341 9.25.768-.443-5.34-9.25 1.151-.666a.445.445 0 0 1 .607.164l5.34 9.25Zm1.09-1.658a.445.445 0 0 1-.161.607l-.384.222-5.119-8.865a1.334 1.334 0 0 0-1.82-.492l-.383.222-1.335-2.313 1.92-1.108a.445.445 0 0 1 .606.164l6.676 11.563Zm2.293-3.122-.723 1.702-1.024.591-3.56-6.167 1.023-.591 1.837.224 2.447 4.24Zm.98-1.85-.768.443-1.335-2.313.768-.444 1.335 2.313Zm1.09-1.659-.767.444-.445-.771.768-.444.445.771Z" fill="#27AE60"/></svg><svg fill="none" viewBox="0 0 184 67" id="home--svg--logo" xmlns="http://www.w3.org/2000/svg"><path d="M33.5 67C52.002 67 67 52.002 67 33.5 67 14.998 52.002 0 33.5 0 14.998 0 0 14.998 0 33.5 0 52.002 14.998 67 33.5 67Z" fill="red"/><path fill-rule="evenodd" clip-rule="evenodd" d="m31.765 36.063 6.475 13.603-11.503.076-6.043-16.953h4.164c1.143 0 2.311-.406 3.479-1.243 1.168-.838 1.93-2.234 2.26-4.213a7.993 7.993 0 0 0 .228-1.827c0-2.716-1.37-4.086-4.088-4.086h-4.062l-4.977 28.246H6.983l5.967-33.931H31.51c3.047 0 5.51.634 7.313 1.928 1.828 1.295 2.742 3.325 2.742 6.142 0 .762-.076 1.6-.229 2.538-.38 2.31-1.066 4.162-2.056 5.533-.99 1.37-2.006 2.335-3.073 2.893-1.066.584-2.056.913-2.97 1.066-.89.127-1.397.203-1.473.228Zm15.184 3.706h14.473c.102 0 .305-.787.61-2.335.33-1.548.482-3.071.482-4.594 0-2.386-.482-4.162-1.447-5.304-.99-1.168-2.184-1.904-3.58-2.259-1.397-.33-3.276-.507-5.688-.507-7.72.177-12.315 4.593-13.762 13.273a18.66 18.66 0 0 0-.305 3.477c0 5.557 2.895 8.502 8.684 8.806.178 0 .457 0 .812.025.356.026.66.026.864.026 2.488 0 4.646-.229 6.5-.66 1.854-.431 3.123-.787 3.86-1.091l2.081-5.837c-.66.431-1.853.964-3.554 1.624-1.701.634-3.682 1.015-5.993 1.091-2.869 0-4.29-1.345-4.29-4.01.025-1.142.1-1.725.253-1.725Zm6.043-9.695c2.286.177 3.428 1.345 3.428 3.502-.076 1.294-.203 1.954-.38 1.954h-8.355c.051-.913.432-2.056 1.143-3.4.736-1.371 2.107-2.056 4.164-2.056Z" fill="#fff"/><path d="M79.4 32.206c0 .558.355.964 1.04 1.167.686.203 1.905.432 3.606.635 1.701.203 3.022.457 3.91.71 2.971.914 4.47 2.69 4.47 5.355 0 .28-.026.71-.102 1.27-.762 5.76-4.698 8.806-11.858 9.136-.381.025-.94.05-1.676.05-2.412 0-4.469-.203-6.17-.634-1.727-.406-2.59-.71-2.59-.838V42.89c.508.457 1.422 1.016 2.793 1.726 1.346.685 3.022 1.066 5.028 1.117 2.133 0 3.707-.229 4.697-.685 1.016-.457 1.6-1.219 1.752-2.31 0-.964-.355-1.675-1.066-2.081-.711-.406-1.625-.71-2.743-.837-1.117-.127-2.463-.305-4.012-.483-1.6-.279-2.843-.786-3.732-1.472-.889-.685-1.32-1.776-1.32-3.299 0-.863.177-1.903.533-3.147.66-2.132 2.285-3.883 4.875-5.228 1.498-.736 3.479-1.167 5.992-1.32.457-.025 1.092-.05 1.956-.05 2.209 0 4.011.152 5.382.482 1.372.33 2.311.584 2.794.787l.533 4.923s-.432-.152-1.244-.457c-.813-.304-1.829-.583-3.047-.837-1.22-.254-2.641-.38-4.266-.38-3.53 0-5.383.963-5.535 2.867ZM101.262 29.44h-6.5l.736-4.087h20.719l-.736 4.086h-6.5L105.4 49.793h-7.719l3.581-20.354ZM115.455 46.19l-2.005 3.603h-5.536l13.432-24.44h6.983l4.977 24.44h-8.176l-.737-3.603h-8.938Zm8.024-4.264-1.472-7.512-4.19 7.512h5.662ZM153.416 39.997l4.672 9.796-8.303.051-4.367-12.232h2.996c.838 0 1.676-.305 2.514-.889.837-.609 1.396-1.599 1.65-3.045.102-.482.152-.914.152-1.32 0-1.954-.965-2.944-2.945-2.944h-2.92l-3.58 20.354h-7.719l4.316-24.44h13.382c2.209 0 3.961.457 5.281 1.396 1.32.94 1.981 2.411 1.981 4.441 0 .533-.051 1.142-.153 1.828-.279 1.675-.787 2.994-1.473 3.984-.685.99-1.447 1.675-2.234 2.081-.762.406-1.473.66-2.133.761-.685.102-1.041.153-1.117.178ZM168.905 29.44h-6.5l.736-4.087h20.72l-.737 4.086h-6.5l-3.58 20.354h-7.719l3.58-20.354Z" fill="#000"/></svg><svg fill="none" viewBox="0 0 30 20" id="home--svg--open-menu" xmlns="http://www.w3.org/2000/svg"><rect width="30" height="4" rx="2" fill="#333"/><rect y="8" width="30" height="4" rx="2" fill="#333"/><rect y="16" width="30" height="4" rx="2" fill="#333"/></svg><svg fill="none" viewBox="0 0 14 10" id="network--svg--arrow" xmlns="http://www.w3.org/2000/svg"><path d="m1.434 1.854 5.72 5.322 5.72-5.322" stroke="#777" stroke-width="3"/></svg><svg fill="none" viewBox="0 0 38 38" id="network--svg--facebook" xmlns="http://www.w3.org/2000/svg"><g clip-path="url(#ia)"><path fill-rule="evenodd" clip-rule="evenodd" d="M20.297 38h-18.2A2.097 2.097 0 0 1 0 35.903V2.097C0 .94.939 0 2.097 0h33.806C37.06 0 38 .939 38 2.097v33.806C38 37.06 37.06 38 35.903 38H26.22V23.284h4.939l.74-5.735h-5.68v-3.661c0-1.66.461-2.792 2.842-2.792l3.037-.001v-5.13c-.525-.07-2.328-.226-4.425-.226-4.378 0-7.376 2.673-7.376 7.581v4.23h-4.952v5.734h4.952V38Z" fill="#4460A0"/></g><defs><clipPath id="ia"><path fill="#fff" d="M0 0h38v38H0z"/></clipPath></defs></svg><svg fill="none" viewBox="0 0 38 38" id="network--svg--insta" xmlns="http://www.w3.org/2000/svg"><mask id="ja" style="mask-type:alpha" maskUnits="userSpaceOnUse" x="0" y="0" width="38" height="38"><rect width="38" height="38" rx="2" fill="#41ABE1"/></mask><g mask="url(#ja)"><path d="M19.007-1.727c-6.971 0-14.257-.054-20.543-.054-.14.97-.182 9.084-.19 14.036-.003 1.65 0 3.823 0 6.737 0 8.649.01 20.244.051 20.735h41.363c.027-.357.04-15.053.04-20.74 0-7.021.053-16.018.053-20.524-1.781 0-9.073-.182-14.028-.19h-6.746Z" fill="url(#jb)"/><path d="M19.007-1.727c-6.971 0-14.257-.054-20.543-.054-.14.97-.182 9.084-.19 14.036-.003 1.65 0 3.823 0 6.737 0 8.649.01 20.244.051 20.735h41.363c.027-.357.04-15.053.04-20.74 0-7.021.053-16.018.053-20.524-1.781 0-9.073-.182-14.028-.19h-6.746Z" fill="url(#jc)"/><path d="M19.001 6.91c-3.284 0-3.696.014-4.985.072-1.288.06-2.166.263-2.935.562a5.92 5.92 0 0 0-2.142 1.394 5.935 5.935 0 0 0-1.395 2.142c-.3.769-.504 1.648-.562 2.934-.058 1.29-.073 1.702-.073 4.986s.015 3.695.073 4.984c.06 1.287.263 2.166.562 2.935.309.795.722 1.47 1.394 2.142a5.92 5.92 0 0 0 2.141 1.395c.77.3 1.649.503 2.936.562 1.29.059 1.701.073 4.985.073 3.284 0 3.694-.014 4.984-.073 1.287-.059 2.167-.263 2.936-.562a5.915 5.915 0 0 0 2.14-1.395 5.934 5.934 0 0 0 1.396-2.142c.297-.769.501-1.648.562-2.934.058-1.29.073-1.701.073-4.985 0-3.284-.015-3.696-.073-4.985-.06-1.288-.265-2.166-.562-2.935a5.933 5.933 0 0 0-1.395-2.142 5.91 5.91 0 0 0-2.142-1.394c-.77-.299-1.65-.503-2.937-.562-1.29-.058-1.7-.073-4.985-.073h.004Zm-1.085 2.178h1.085c3.228 0 3.611.012 4.886.07 1.179.053 1.819.25 2.245.416.564.22.966.481 1.39.904.422.423.684.827.904 1.39.166.426.363 1.066.416 2.245.058 1.275.071 1.658.071 4.884 0 3.227-.013 3.61-.07 4.884-.055 1.18-.251 1.82-.417 2.245a3.74 3.74 0 0 1-.905 1.389 3.74 3.74 0 0 1-1.39.904c-.425.166-1.065.363-2.244.417-1.275.058-1.658.07-4.886.07-3.229 0-3.611-.012-4.886-.07-1.179-.055-1.818-.252-2.245-.417a3.744 3.744 0 0 1-1.39-.904 3.747 3.747 0 0 1-.905-1.39c-.166-.426-.363-1.066-.417-2.244-.057-1.275-.069-1.658-.069-4.887 0-3.229.012-3.61.07-4.884.053-1.179.25-1.819.416-2.245.219-.564.482-.967.905-1.39a3.753 3.753 0 0 1 1.39-.905c.426-.166 1.066-.363 2.245-.417 1.116-.05 1.548-.065 3.801-.068v.003Zm7.54 2.008a1.45 1.45 0 1 0-.001 2.902 1.45 1.45 0 0 0 0-2.903ZM19 12.79a6.21 6.21 0 1 0 .001 12.419 6.21 6.21 0 0 0-.001-12.42Zm0 2.179a4.03 4.03 0 1 1 0 8.06 4.03 4.03 0 0 1 0-8.06Z" fill="#fff"/></g><defs><radialGradient id="jb" cx="0" cy="0" r="1" gradientUnits="userSpaceOnUse" gradientTransform="matrix(0 -41.0845 38.2118 0 9.284 42.92)"><stop stop-color="#FD5"/><stop offset=".1" stop-color="#FD5"/><stop offset=".5" stop-color="#FF543E"/><stop offset="1" stop-color="#C837AB"/></radialGradient><radialGradient id="jc" cx="0" cy="0" r="1" gradientTransform="matrix(3.60932 18.0312 -74.3236 14.8858 -8.68 1.209)" gradientUnits="userSpaceOnUse"><stop stop-color="#3771C8"/><stop offset=".128" stop-color="#3771C8"/><stop offset="1" stop-color="#60F" stop-opacity="0"/></radialGradient></defs></svg><svg fill="none" viewBox="0 0 32 32" id="network--svg--nav-icon" xmlns="http://www.w3.org/2000/svg"><circle cx="16" cy="16" r="16" fill="#27AE60"/><path d="M16 7c-3.305 0-6 2.6-6 5.79 0 3.519 3.62 8.937 5.236 11.182a.932.932 0 0 0 1.526-.002C18.377 21.717 22 16.274 22 12.77 22 9.58 19.305 7 16 7Zm0 8.96c-1.853 0-3.368-1.463-3.368-3.251 0-1.788 1.515-3.25 3.368-3.25s3.368 1.462 3.368 3.25-1.515 3.25-3.368 3.25Z" fill="#fff"/></svg><svg fill="none" viewBox="0 0 60 60" id="network--svg--ok" xmlns="http://www.w3.org/2000/svg"><path fill-rule="evenodd" clip-rule="evenodd" d="M30 60c16.569 0 30-13.431 30-30C60 13.431 46.569 0 30 0 13.431 0 0 13.431 0 30c0 16.569 13.431 30 30 30Zm0-3.333c14.728 0 26.667-11.94 26.667-26.667 0-14.728-11.94-26.667-26.667-26.667C15.272 3.333 3.333 15.273 3.333 30c0 14.728 11.94 26.667 26.667 26.667Z" fill="#27AE60"/><path fill-rule="evenodd" clip-rule="evenodd" d="M39.696 22.485 28.013 34.232l-6.981-7.02a1.763 1.763 0 0 0-1.936-.41 1.763 1.763 0 0 0-.964.97 1.78 1.78 0 0 0 .406 1.946l8.228 8.273a1.758 1.758 0 0 0 2.493 0l12.93-13a1.778 1.778 0 0 0-.035-2.472 1.759 1.759 0 0 0-2.458-.034Z" fill="#27AE60"/></svg><svg fill="none" viewBox="0 0 47 32" id="network--svg--play-btn" xmlns="http://www.w3.org/2000/svg"><path d="M46.074 6.945s-.453-3.123-1.84-4.498C42.475.642 40.499.633 39.597.527 33.116.07 23.398.07 23.398.07h-.018s-9.718 0-16.2.456C6.28.633 4.304.642 2.545 2.447 1.157 3.822.704 6.945.704 6.945s-.462 3.664-.462 7.332v3.438c0 3.668.462 7.332.462 7.332s.453 3.122 1.84 4.497c1.763 1.806 4.075 1.748 5.104 1.939 3.703.346 15.741.457 15.741.457s9.727-.014 16.208-.475c.907-.107 2.878-.115 4.637-1.92 1.387-1.376 1.84-4.498 1.84-4.498s.462-3.669.462-7.332v-3.438c0-3.668-.462-7.332-.462-7.332ZM18.607 21.88V9.15l12.51 6.387-12.51 6.343Z" fill="#282928" fill-opacity=".8"/><path d="m18.607 21.88 12.51-6.343-12.51-6.388v12.73Z" fill="#fff"/><path opacity=".12" fill-rule="evenodd" clip-rule="evenodd" d="m18.607 9.15 10.969 7.167 1.54-.78-12.509-6.388Z" fill="#000"/></svg><svg fill="none" viewBox="0 0 38 38" id="network--svg--youtube" xmlns="http://www.w3.org/2000/svg"><rect width="38" height="38" rx="2" fill="#CE1312"/><path fill-rule="evenodd" clip-rule="evenodd" d="m16.316 22.004-.001-7.59 7.025 3.808-7.024 3.782Zm15.424-8.906s-.254-1.86-1.034-2.68c-.988-1.077-2.097-1.082-2.604-1.144C24.463 9 19.006 9 19.006 9h-.012s-5.457 0-9.096.274c-.508.062-1.616.067-2.605 1.143-.78.82-1.033 2.681-1.033 2.681S6 15.285 6 17.471v2.05c0 2.186.26 4.371.26 4.371s.253 1.862 1.033 2.681c.99 1.077 2.288 1.043 2.867 1.155C12.24 27.936 19 28 19 28s5.463-.008 9.102-.282c.507-.063 1.616-.068 2.604-1.145.78-.82 1.034-2.68 1.034-2.68s.26-2.186.26-4.373v-2.05c0-2.185-.26-4.371-.26-4.371Z" fill="#fff"/></svg><svg fill="none" viewBox="0 0 70 70" id="solutions--svg--sol1-icon" xmlns="http://www.w3.org/2000/svg"><path d="M35 1.467c18.512 0 33.533 15.05 33.533 33.533 0 18.512-15.05 33.533-33.533 33.533-18.512 0-33.533-15.05-33.533-33.533C1.437 16.517 16.487 1.467 35 1.467ZM35 0C15.666 0 0 15.666 0 35s15.666 35 35 35 35-15.666 35-35S54.334 0 35 0Z" fill="#E30613"/><path d="M61.6 39.585h-3.084v-1.607h-3.083V36.78l-3.589-2.805h-2.55v-8.794c0-1.315-1.038-2.396-2.3-2.396h-.756v-.79c0-1.314-1.037-2.395-2.299-2.395H22.438c-1.01 0-1.85.672-2.159 1.607H14V26h6.14v3.36c-.898.321-1.543 1.198-1.543 2.25v5.61H14v12.796h4.597v.79c0 1.314 1.038 2.395 2.3 2.395H43.91c1.01 0 1.85-.672 2.159-1.607h.897c1.009 0 1.85-.672 2.158-1.607h2.691l3.589-2.805v-1.198h3.083v-1.606h3.084v-4.792h.028Zm-16.876-17.59v.79h-3.083v6.398H24.765v-8.005h19.174c.449 0 .785.38.785.818Zm-22.258-.817h.757v8.005H21.68v-7.187c.028-.438.364-.818.785-.818Zm-6.896 3.214v-1.607h4.597v1.607H15.57Zm3.055 14.404v2.045a3.072 3.072 0 0 0-1.541-.438c-.561 0-1.094.175-1.542.438v-2.045h3.083Zm0 4.792c0 .876-.7 1.606-1.541 1.606s-1.542-.73-1.542-1.606c0-.877.7-1.607 1.542-1.607.84 0 1.541.73 1.541 1.607Zm-3.055 4.791v-2.045c.448.263.981.438 1.542.438.56 0 1.093-.175 1.542-.438v2.045H15.57Zm29.154 2.396c0 .438-.336.789-.757.789H24.793V33.157H23.25v18.407h-2.327c-.42 0-.757-.35-.757-.789V31.58c0-.438.337-.789.757-.789H40.1v19.196h1.542V30.79h2.298c.42 0 .757.351.757.79v19.195h.028Zm3.056-1.578c0 .439-.337.79-.757.79h-.757V31.578c0-1.315-1.037-2.396-2.299-2.396h-.757v-4.791h3.84c.421 0 .758.35.758.789v24.016h-.028Zm6.139-2.805-2.551 1.987h-2.046V35.582h2.046l2.551 1.987v8.823Zm3.084-2.016H55.46v-4.791h1.542v4.791Zm3.055-1.577h-1.542v-1.607h1.542v1.607Z" fill="#E30613"/></svg><svg fill="none" viewBox="0 0 70 70" id="solutions--svg--sol10-icon" xmlns="http://www.w3.org/2000/svg"><path d="M35 1.467c18.512 0 33.533 15.05 33.533 33.533S53.483 68.533 35 68.533C16.488 68.533 1.467 53.483 1.467 35S16.517 1.467 35 1.467ZM35 0C15.666 0 0 15.666 0 35s15.666 35 35 35 35-15.666 35-35c.03-19.334-15.666-35-35-35Z" fill="#E30613"/><path fill-rule="evenodd" clip-rule="evenodd" d="M15.461 20.243A3.468 3.468 0 0 0 12 23.705v18.923a3.468 3.468 0 0 0 3.462 3.462h3.374c.587 2.053 2.464 3.579 4.694 3.579s4.107-1.526 4.694-3.58h19.07c.586 2.054 2.464 3.58 4.694 3.58s4.107-1.526 4.694-3.58h.44a2.867 2.867 0 0 0 2.846-2.845V36.35c.029-.147 0-.323-.03-.47 0-.03 0-.03-.03-.059a1.036 1.036 0 0 0-.234-.38l-5.838-8.069a1.045 1.045 0 0 0-.88-.44h-7.07v-3.198a3.468 3.468 0 0 0-3.462-3.462l-26.962-.029Zm0 2.2h27.02c.704 0 1.291.558 1.291 1.291v20.214H28.37a4.885 4.885 0 0 0-4.812-4.02c-2.376 0-4.4 1.732-4.811 4.02H15.46c-.704 0-1.29-.557-1.29-1.29V23.733c0-.733.557-1.29 1.29-1.29Zm30.453 6.66h6.513l5.369 7.452v6.718a.664.664 0 0 1-.675.675h-.323a4.885 4.885 0 0 0-4.811-4.02c-2.406 0-4.401 1.732-4.812 4.02h-1.261V29.103ZM23.529 42.1c1.496 0 2.7 1.203 2.7 2.699v.059a2.68 2.68 0 0 1-2.7 2.64 2.692 2.692 0 0 1-2.7-2.7c0-1.495 1.204-2.698 2.7-2.698Zm28.487 0c1.496 0 2.7 1.203 2.7 2.699 0 1.496-1.204 2.699-2.7 2.699a2.692 2.692 0 0 1-2.7-2.7c0-1.495 1.174-2.698 2.7-2.698Z" fill="#E30613"/><path fill-rule="evenodd" clip-rule="evenodd" d="M29.72 27.9c-.617 0-1.086.47-1.115 1.086 0 .616.469 1.085 1.085 1.115h10.738c.616 0 1.085-.47 1.114-1.086.03-.616-.469-1.085-1.085-1.115H29.719ZM24.82 32.8c-.616 0-1.086.47-1.115 1.086-.03.616.47 1.085 1.086 1.114h15.637c.616 0 1.085-.47 1.114-1.085 0-.616-.47-1.086-1.085-1.115H24.82Z" fill="#E30613"/></svg><svg fill="none" viewBox="0 0 70 70" id="solutions--svg--sol11-icon" xmlns="http://www.w3.org/2000/svg"><path d="M35 1.467c18.512 0 33.533 15.05 33.533 33.533 0 18.512-15.05 33.533-33.533 33.533-18.512 0-33.533-15.05-33.533-33.533S16.517 1.467 35 1.467ZM35 0C15.666 0 0 15.666 0 35s15.666 35 35 35 35-15.666 35-35c.03-19.334-15.637-35-35-35Z" fill="#E30613"/><path d="M57.043 32.115H52.25a.957.957 0 1 0 0 1.916h4.792a.957.957 0 1 0 0-1.916ZM52.25 30.198a.955.955 0 0 0 .357-.069l.016-.005.002-.002 4.773-1.909a.957.957 0 1 0-.712-1.778v-.002l-.015.007h-.002l-4.774 1.91a.958.958 0 0 0 .355 1.848ZM47.46 28.004v-8.347a.958.958 0 0 0-1.916 0v.576l-17.249 5.174H17.753a.959.959 0 0 0-.957.958v1.916h-2.875a.96.96 0 0 0-.958.959v1.916a.96.96 0 0 0-.96.959v1.916c0 .529.43.959.96.959v1.916c0 .53.43.958.958.958h2.875v1.917c0 .53.43.957.957.957h1.356l2.478 10.563h8.624l-2.39-6.863a.955.955 0 0 0 .042-1.625l.932-1.925 16.748 5.026v.574a.958.958 0 1 0 1.916 0v-8.526a5.745 5.745 0 0 0 2.875-4.98 5.745 5.745 0 0 0-2.874-4.978Zm-32.581 7.943v-5.749h1.917v5.75H14.88Zm3.833-8.624h9.583v11.5h-9.583v-11.5Zm4.395 22.062-2.028-8.647h5.658l-.952 1.971-.346.716.26.75 1.816 5.21h-4.408Zm7.104-10.073V37.96l.018-.035h-.018V26.833l15.333-4.6v21.68l-15.333-4.6Zm17.249-3.798V30.45c.596.676.958 1.562.958 2.532a3.81 3.81 0 0 1-.958 2.53ZM57.398 37.934l-4.773-1.91-.002-.002-.016-.006v.001a.957.957 0 1 0-.712 1.78l4.773 1.908c.001 0 .003 0 .004.002l.014.005v-.001a.958.958 0 1 0 .712-1.777Z" fill="#E30613"/></svg><svg fill="none" viewBox="0 0 70 70" id="solutions--svg--sol2-icon" xmlns="http://www.w3.org/2000/svg"><path d="M35 1.467c18.512 0 33.533 15.05 33.533 33.533S53.513 68.563 35 68.563c-18.512 0-33.533-15.05-33.533-33.534C1.467 16.546 16.517 1.467 35 1.467ZM35 0C15.666 0 0 15.666 0 35s15.666 35 35 35 35-15.666 35-35c.03-19.334-15.637-35-35-35Z" fill="#E30613"/><path d="M37.025 37.435c-6.513 0-11.794-5.28-11.794-11.793 0-6.513 5.28-11.794 11.794-11.794 6.513 0 11.793 5.28 11.793 11.794 0 6.483-5.28 11.764-11.793 11.793Zm0-21.915c-5.575 0-10.093 4.518-10.093 10.092 0 5.574 4.518 10.092 10.093 10.092 5.574 0 10.092-4.518 10.092-10.092 0-5.574-4.518-10.092-10.092-10.092Z" fill="#E30613"/><path d="M55.654 40.516a3.201 3.201 0 0 0-4.049-.763l-.938-1.144a2.58 2.58 0 0 0-3.374-.499l-.91.616-.557-.645a2.58 2.58 0 0 0-3.374-.499l-6.22 4.049-6.923-2.846a6.537 6.537 0 0 0-6.513.939l-8.831 7.011a.844.844 0 0 0-.205 1.174.844.844 0 0 0 1.173.205c.03-.029.059-.029.088-.058l8.83-7.012a4.817 4.817 0 0 1 4.841-.675l12.234 5.017a1.58 1.58 0 0 1 .792 2.083c-.322.763-1.202 1.115-1.965.85l-8.273-3.227a.828.828 0 0 0-1.115.411c-.206.44 0 .94.41 1.115.03 0 .06.03.088.03l8.244 3.256c.382.147.793.235 1.203.235a3.29 3.29 0 0 0 3.286-3.14l.088-.058 8.625-5.633a1.534 1.534 0 0 1 2.142.499c.44.704.264 1.584-.41 2.083l-11.677 8.273c-1.496 1.056-3.403 1.408-5.164.88l-9.857-2.787c-1.819-.499-3.755-.117-5.222 1.086l-2.64 2.17a.843.843 0 0 0-.089 1.203.84.84 0 0 0 .646.294.82.82 0 0 0 .528-.176l2.67-2.142a4.046 4.046 0 0 1 3.667-.763l9.828 2.758a7.765 7.765 0 0 0 6.601-1.144l11.706-8.273c1.467-1.027 1.819-3.08.792-4.548-.088-.058-.117-.117-.176-.205ZM43.332 38.99c.381-.234.88-.176 1.144.176l.411.499-5.163 3.403-1.585-.675 5.193-3.403Zm-.176 6.25a3.393 3.393 0 0 0-1.496-1.38l6.572-4.312c.38-.235.88-.176 1.144.176l.792.968-7.012 4.547ZM37.112 21.945c.822.03 1.643.147 2.465.352.44.117.91-.147 1.056-.587.117-.44-.147-.91-.587-1.056a12.528 12.528 0 0 0-2.053-.352v-1.144a.851.851 0 0 0-1.702 0v1.173c-2.288.323-2.552 1.878-2.552 2.582 0 1.76 1.819 2.494 2.904 2.963l.205.088.323.118c1.115.44 1.584.704 1.584 1.496s-.528 1.173-1.555 1.232h-.176a10.596 10.596 0 0 1-2.845-.675c-.44-.176-.94 0-1.115.44-.176.44 0 .94.44 1.115.03 0 .059.03.059.03.88.322 1.79.586 2.728.733v1.144a.851.851 0 0 0 1.702 0v-1.173c1.554-.294 2.464-1.32 2.464-2.846 0-1.995-1.672-2.67-2.64-3.051l-.5-.206c-.791-.322-1.848-.762-1.848-1.379-.058-.352-.058-.997 1.643-.997Z" fill="#E30613"/></svg><svg fill="none" viewBox="0 0 70 70" id="solutions--svg--sol3-icon" xmlns="http://www.w3.org/2000/svg"><path d="M35 1.467c18.512 0 33.533 15.05 33.533 33.533S53.483 68.533 35 68.533C16.488 68.533 1.467 53.483 1.467 35S16.487 1.467 35 1.467ZM35 0C15.666 0 0 15.666 0 35s15.666 35 35 35 35-15.666 35-35S54.334 0 35 0Z" fill="#E30613"/><path d="M49.931 17.5H34.077c-1.417 0-2.569 1.13-2.569 2.52v7.53c-1.387.29-2.716.724-4.015 1.303a33.825 33.825 0 0 0-3.248 1.622c-2.126 1.188-3.602 3.244-4.015 5.59l-2.716 15.35c-.089.522.265 1.014.797 1.13a1.016 1.016 0 0 0 1.151-.782l2.716-15.35c.325-1.796 1.447-3.331 3.041-4.229a37.508 37.508 0 0 1 3.071-1.506 17.731 17.731 0 0 1 3.248-1.072v6.43a6.726 6.726 0 0 0-.709-.232.995.995 0 0 0-1.21.666c-.148.522.177 1.043.679 1.188a3.54 3.54 0 0 1 1.417.666 7.904 7.904 0 0 1-2.303 2.317.993.993 0 0 0-.266 1.361c.295.464.915.55 1.388.261a9.704 9.704 0 0 0 2.893-2.983l3.218-4.953c.502-.81 1.595-1.042 2.392-.521a1.65 1.65 0 0 1 .531 2.346l-2.391 3.794a8.779 8.779 0 0 0-1.388 5.069c.089 2.432-1.122 4.72-3.159 6.082l-.266.173a9.035 9.035 0 0 0-2.598 2.665c-.295.463-.147 1.043.325 1.332a.983.983 0 0 0 1.358-.318 6.925 6.925 0 0 1 2.037-2.086l.266-.173a8.982 8.982 0 0 0 3.307-3.997l.236.231c1.21 1.188 3.189 1.217 4.4.03.353-.348.649-.783.796-1.275 1.624.348 3.248-.637 3.602-2.23.118-.55.089-1.1-.088-1.622l-.06-.145h3.986c1.418 0 2.569-1.13 2.569-2.52V20.02a2.565 2.565 0 0 0-2.569-2.52Zm-8.68 19.637a3.602 3.602 0 0 0-1.328-4.982c-1.683-.985-3.868-.492-4.96 1.1l-1.506 2.318V20.02c0-.319.265-.58.59-.58h11.574v22.273h-7.234c.118-.26.266-.522.414-.782l2.45-3.794ZM40.218 47.62a1.152 1.152 0 0 1-1.535-.087l-1.034-1.042a6.96 6.96 0 0 0 .089-1.564c0-.435.03-.84.088-1.275h1.093s0 .03.03.058l1.535 2.462c.295.463.177 1.1-.266 1.448Zm3.897-3.215c.177.55-.118 1.13-.65 1.304-.442.144-.974-.03-1.21-.435l-.089-.174-.944-1.506h2.627l.266.811Zm6.407-3.273c0 .32-.266.58-.59.58h-2.303V19.44h2.302c.325 0 .59.261.59.58v21.113Z" fill="#E30613"/></svg><svg fill="none" viewBox="0 0 70 70" id="solutions--svg--sol4-icon" xmlns="http://www.w3.org/2000/svg"><path d="M35 1.467c18.512 0 33.533 15.05 33.533 33.533S53.483 68.563 35 68.563c-18.512 0-33.533-15.05-33.533-33.534C1.467 16.546 16.487 1.467 35 1.467ZM35 0C15.666 0 0 15.666 0 35s15.666 35 35 35 35-15.666 35-35C70 15.696 54.334 0 35 0Z" fill="#E30613"/><path d="M45.59 48.114c-.997 0-1.936-.499-2.464-1.056-.352-.352-.352-.94 0-1.32.352-.352.94-.352 1.32 0 0 0 .323.322.793.44.323.088.821.146 1.437-.44.616-.617.558-1.115.44-1.438-.146-.44-.44-.792-.469-.792-.352-.352-.352-.939 0-1.32.352-.352.939-.352 1.32 0 .968.968 1.76 3.05 0 4.84-.763.793-1.584 1.086-2.376 1.086Z" fill="#E30613"/><path d="M40.34 49.874c-.998 0-1.937-.499-2.465-1.056-.352-.352-.352-.939 0-1.32.352-.352.939-.352 1.32 0 0 0 .323.323.792.44.323.088.822.147 1.438-.44.616-.616.557-1.115.44-1.438-.147-.44-.44-.792-.47-.792-.352-.352-.352-.939 0-1.32.352-.352.94-.352 1.32 0 .969.968 1.76 3.051 0 4.84-.792.793-1.613 1.086-2.376 1.086Z" fill="#E30613"/><path d="M35.088 51.575c-.998 0-1.907-.469-2.494-.997l-.03-.03-1.76-1.76c-.351-.352-.351-.938 0-1.32 0 0 .323-.323.44-.792.089-.323.147-.821-.44-1.437-.615-.616-1.114-.558-1.437-.44-.44.146-.792.44-.792.469-.352.352-.939.352-1.32 0-.352-.352-.352-.939 0-1.32.968-.968 3.05-1.76 4.84 0 1.409 1.408 1.203 2.992.558 4.078l1.173 1.173c.06.059.382.323.822.44.528.147.968.03 1.408-.41.44-.44.587-.91.41-1.467-.146-.44-.44-.793-.44-.793a.93.93 0 0 1 .06-1.32.93.93 0 0 1 1.32.059c.91.997 1.672 3.11-.03 4.811-.704.793-1.525 1.056-2.288 1.056Z" fill="#E30613"/><path d="M29.631 49.874c-.763 0-1.584-.293-2.347-1.056-.968-.968-1.29-2.17-.88-3.374.293-.85.821-1.408.88-1.467.352-.352.939-.352 1.32 0 .352.352.352.94 0 1.32 0 0-.322.323-.44.793-.088.322-.146.821.44 1.437.616.616 1.115.558 1.438.44.44-.146.792-.44.792-.47.352-.351.939-.351 1.32 0 .382.353.352.94 0 1.321-.587.558-1.496 1.056-2.523 1.056ZM49.111 44.593c-.997 0-1.936-.498-2.464-1.056-.352-.352-.352-.939 0-1.32a.92.92 0 0 1 1.29 0c.03.03.353.323.793.47.323.087.821.146 1.437-.44.616-.617.558-1.115.44-1.438-.146-.44-.44-.792-.469-.792l-1.73-1.731-.03-.03-8.508-8.508h-6.278l-1.497 1.497c-1.819 1.819-3.462 2.552-5.017 2.23-1.378-.265-2.376-1.262-3.344-2.23a.91.91 0 0 1-.264-.646.91.91 0 0 1 .264-.645c.03-.03 1.819-1.79 5.28-5.252 3.375-3.374 10.68-2.435 12.645-2.112l3.169-3.168a.91.91 0 0 1 .645-.265.91.91 0 0 1 .646.265l8.801 8.8c.352.353.352.94 0 1.321l-3.286 3.286-1.496 4.518 1.35 1.35c.058.058.616.615.88 1.466.41 1.203.088 2.406-.88 3.374-.763.763-1.585 1.056-2.377 1.056ZM33.24 27.871h7.04a.91.91 0 0 1 .646.264l7.745 7.745 1.291-3.843c.059-.147.117-.264.235-.352l2.875-2.875-7.54-7.482-2.875 2.876a.944.944 0 0 1-.822.264c-.088-.03-8.331-1.614-11.47 1.525-2.26 2.26-3.815 3.814-4.636 4.606.557.528 1.144.968 1.73 1.086.91.176 1.996-.382 3.345-1.731l1.76-1.76a.877.877 0 0 1 .675-.323ZM20.859 44.593c-.763 0-1.584-.293-2.347-1.056-1.76-1.76-.968-3.873 0-4.84l3.52-3.521c.969-.968 3.052-1.76 4.841 0 1.76 1.76.968 3.872 0 4.84-.352.353-.939.353-1.32 0-.352-.352-.352-.938 0-1.32 0 0 .323-.322.44-.792.088-.323.147-.821-.44-1.437-.616-.616-1.115-.558-1.438-.44-.44.146-.792.44-.792.469l-3.52 3.52s-.323.323-.44.793c-.088.322-.147.821.44 1.437.616.616 1.115.558 1.437.44.44-.146.792-.44.792-.47.352-.351.94-.351 1.32 0 .382.353.353.94 0 1.321-.586.557-1.496 1.056-2.493 1.056Z" fill="#E30613"/><path d="M24.35 48.113c-.85 0-1.672-.352-2.347-1.056-.968-.968-1.29-2.17-.88-3.374.294-.85.822-1.408.88-1.466l3.52-3.521c.118-.117 1.086-1.056 2.495-1.056.85 0 1.672.352 2.347 1.056 1.76 1.76.968 3.873 0 4.84l-3.52 3.521c-.118.118-1.086 1.056-2.495 1.056Zm-1.026-4.576s-.323.322-.44.792c-.088.323-.147.821.44 1.437.352.352.674.5 1.026.5.616 0 1.174-.5 1.174-.5l3.52-3.52s.323-.323.44-.792c.088-.323.147-.822-.44-1.438-.352-.352-.674-.499-1.026-.499-.617 0-1.174.5-1.174.5l-3.52 3.52ZM38.491 49.082a.91.91 0 0 1-.645-.264l-3.52-3.52c-.353-.352-.353-.94 0-1.32.351-.353.938-.353 1.32 0l3.52 3.52c.352.352.352.939 0 1.32a.93.93 0 0 1-.675.264ZM43.772 47.322a.91.91 0 0 1-.645-.264l-5.281-5.28c-.352-.353-.352-.94 0-1.321.352-.352.939-.352 1.32 0l5.28 5.28c.353.353.353.94 0 1.32a.98.98 0 0 1-.674.265ZM47.292 43.801a.91.91 0 0 1-.645-.264l-5.28-5.28c-.353-.352-.353-.94 0-1.32.351-.353.938-.353 1.32 0l5.28 5.28c.352.352.352.939 0 1.32a.979.979 0 0 1-.675.264ZM20.918 38.52a.906.906 0 0 1-.88-.645L18.336 32.8l-3.374-3.374a.91.91 0 0 1-.264-.646.91.91 0 0 1 .264-.645l8.802-8.802c.352-.352.938-.352 1.32 0l3.168 3.169c1.115-.176 3.932-.557 6.777-.264.499.059.88.499.822 1.027a.928.928 0 0 1-1.027.821c-3.315-.352-6.69.323-6.718.323a.944.944 0 0 1-.851-.264L24.38 21.27l-7.51 7.48 2.874 2.876c.088.088.176.235.235.352l1.76 5.28c.176.5-.088.998-.587 1.174-.058.088-.146.088-.234.088Z" fill="#E30613"/></svg><svg fill="none" viewBox="0 0 70 70" id="solutions--svg--sol5-icon" xmlns="http://www.w3.org/2000/svg"><path d="M35 1.467c18.512 0 33.533 15.05 33.533 33.533 0 18.512-15.05 33.533-33.533 33.533-18.512 0-33.533-15.05-33.533-33.533S16.517 1.467 35 1.467ZM35 0C15.666 0 0 15.666 0 35s15.666 35 35 35 35-15.666 35-35c.03-19.334-15.637-35-35-35Z" fill="#E30613"/><path d="M48.642 38.696h-8.567v2.2h8.567v-2.2ZM50.314 34.618H40.075v2.2h10.24v-2.2ZM44.359 42.627h-4.284v2.2h4.284v-2.2ZM41.572 25.465a1.496 1.496 0 1 0 0-2.993 1.496 1.496 0 0 0 0 2.993ZM46.207 25.465a1.496 1.496 0 1 0 0-2.993 1.496 1.496 0 0 0 0 2.993ZM51.106 25.465a1.496 1.496 0 1 0 0-2.993 1.496 1.496 0 0 0 0 2.993Z" fill="#E30613"/><path d="M52.192 20.36a2.848 2.848 0 0 1 2.846 2.846v23.851a2.848 2.848 0 0 1-2.846 2.846H17.867a2.848 2.848 0 0 1-2.846-2.846V23.206a2.848 2.848 0 0 1 2.846-2.846h34.325Zm0-1.467H17.867a4.32 4.32 0 0 0-4.313 4.313v23.851a4.32 4.32 0 0 0 4.313 4.313h34.325a4.32 4.32 0 0 0 4.313-4.313V23.206a4.32 4.32 0 0 0-4.313-4.313Z" fill="#E30613"/><path d="M56.505 26.902h-42.98v1.672h42.98v-1.672ZM27.519 46.647a7.07 7.07 0 1 0 0-14.141 7.07 7.07 0 0 0 0 14.14Z" fill="#E30613"/></svg><svg fill="none" viewBox="0 0 70 70" id="solutions--svg--sol6-icon" xmlns="http://www.w3.org/2000/svg"><path d="M35 1.467c18.512 0 33.533 15.05 33.533 33.533 0 18.512-15.05 33.533-33.533 33.533-18.512 0-33.533-15.05-33.533-33.533S16.517 1.467 35 1.467ZM35 0C15.666 0 0 15.666 0 35s15.666 35 35 35 35-15.666 35-35c.03-19.334-15.666-35-35-35Z" fill="#E30613"/><path d="M51.742 35.457c.408-.058.816.204.875.612l2.654 14.992a.74.74 0 0 1-.613.875l-5.279.934c-.408.058-.816-.205-.875-.613L45.85 37.265a.74.74 0 0 1 .612-.875l5.28-.933Zm-.496 1.633-3.792.671 2.392 13.504 3.792-.67-2.392-13.505Z" fill="#E30613"/><path fill-rule="evenodd" clip-rule="evenodd" d="m52.267 38.461.262 1.488-5.28.933-.262-1.488 5.28-.933Z" fill="#E30613"/><path d="M28.525 35.457c-.408-.058-.817.204-.875.612l-2.654 14.992a.74.74 0 0 0 .612.875l5.28.934c.408.058.816-.205.874-.613l2.655-14.992c.058-.408-.205-.816-.613-.875l-5.279-.933Zm.496 1.633 3.791.671-2.391 13.504-3.792-.67 2.392-13.505Z" fill="#E30613"/><path fill-rule="evenodd" clip-rule="evenodd" d="m28 38.461-.262 1.488 5.279.933.262-1.488L28 38.461Z" fill="#E30613"/><path d="M40.163 31.286c-3.53-.03-6.767 2.012-8.284 5.22a.777.777 0 0 0 .35 1.022c.38.204.817.029 1.021-.35a7.52 7.52 0 0 1 6.913-4.346 7.615 7.615 0 0 1 6.854 4.433c.175.38.612.554.991.38.38-.176.554-.613.38-.992a9.055 9.055 0 0 0-8.225-5.367Z" fill="#E30613"/><path d="M41.65 12.328a.772.772 0 0 0-.758.758v3.033c0 .409.35.759.758.759a1.12 1.12 0 0 1 1.137 1.137 1.12 1.12 0 0 1-1.137 1.138.772.772 0 0 0-.758.758v2.275c0 .409.35.759.758.759a1.12 1.12 0 0 1 1.137 1.137 1.12 1.12 0 0 1-1.137 1.137h-1.517a3.803 3.803 0 0 0-3.791 3.792 3.803 3.803 0 0 0 3.791 3.792c.409 0 .759-.321.759-.758a.753.753 0 0 0-.759-.759h-.029a2.278 2.278 0 0 1-2.275-2.275 2.278 2.278 0 0 1 2.275-2.275h1.517a2.664 2.664 0 0 0 2.654-2.654c0-1.167-.846-1.983-1.896-2.333v-1.4c1.05-.35 1.896-1.167 1.896-2.334 0-1.166-.846-1.983-1.896-2.333v-1.838h2.013c1.108 0 2.041.788 2.245 1.867l3.705 20.621c.087.408.466.67.875.613a.778.778 0 0 0 .612-.876l-3.704-20.62a3.786 3.786 0 0 0-3.733-3.121H41.65Z" fill="#E30613"/><path d="M40.892 29.011c0 .408-.35.758-.759.758a.772.772 0 0 1-.758-.758c0-.408.35-.758.758-.758.409 0 .759.32.759.758Z" fill="#E30613"/><path fill-rule="evenodd" clip-rule="evenodd" d="M35.846 12.328a3.786 3.786 0 0 0-3.733 3.12L28.407 36.07l1.488.263 3.704-20.62a2.283 2.283 0 0 1 2.246-1.867h2.012v1.837c-1.05.35-1.895 1.167-1.895 2.333 0 1.167.845 1.984 1.895 2.334v1.4c-1.05.35-1.895 1.166-1.895 2.333a2.664 2.664 0 0 0 2.654 2.654h2.275V25.22h-2.275a1.12 1.12 0 0 1-1.138-1.137 1.12 1.12 0 0 1 1.138-1.137h.758v-3.792h-.758a1.12 1.12 0 0 1-1.138-1.138 1.12 1.12 0 0 1 1.138-1.137h.758v-4.55h-3.53ZM9.07 42.632v1.517h6.067c2.1 0 3.792 1.691 3.792 3.791v5.309c0 2.916 2.392 5.308 5.309 5.308h.058c2.829-.117 5.017-2.508 4.9-5.337v-1.488h-1.517v1.576a3.564 3.564 0 0 1-3.412 3.732c-2.1 0-3.763-1.691-3.763-3.791V47.94c0-2.916-2.392-5.308-5.308-5.308H9.07Z" fill="#E30613"/></svg><svg fill="none" viewBox="0 0 70 70" id="solutions--svg--sol7-icon" xmlns="http://www.w3.org/2000/svg"><path d="M35 1.467c18.512 0 33.533 15.05 33.533 33.533 0 18.512-15.05 33.533-33.533 33.533-18.512 0-33.533-15.05-33.533-33.533S16.517 1.467 35 1.467ZM35 0C15.666 0 0 15.666 0 35s15.666 35 35 35 35-15.666 35-35c.03-19.304-15.666-35-35-35Z" fill="#E30613"/><path d="M47.44 52.163H21.034v-31.51h22.737v-2.17H20.566c-.94 0-1.702.762-1.702 1.701v32.448c0 .968.763 1.702 1.702 1.702h27.372c.939 0 1.701-.763 1.701-1.702V39.43a3.61 3.61 0 0 1-2.2-.734v13.467Z" fill="#E30613"/><path d="M53.541 17.427c0-.44-.176-.91-.528-1.233-.381-.322-.762-.528-1.232-.528h-4.283c-.44 0-.91.176-1.232.528a1.757 1.757 0 0 0-.529 1.233v15.871c0 .411.177.851.44 1.145l2.172 2.435c.322.352.821.616 1.29.616.44 0 .91-.206 1.233-.528l.088-.088 2.17-2.435c.294-.323.44-.734.44-1.145l-.029-15.871Zm-2.2.469v1.907H47.91v-1.907h3.432Zm0 4.049v7.95H47.91v-7.95h3.432ZM49.64 35.059l-1.701-1.966v-1.027h3.432v1.056l-1.73 1.937ZM42.1 25.494H31.685c-.616 0-1.086.5-1.086 1.086 0 .616.5 1.086 1.086 1.086H42.1c.616 0 1.085-.5 1.085-1.086.03-.587-.47-1.085-1.085-1.085ZM42.1 32.066H31.685c-.616 0-1.086.499-1.086 1.086 0 .616.5 1.085 1.086 1.085H42.1c.616 0 1.085-.498 1.085-1.085.03-.616-.47-1.086-1.085-1.086ZM42.1 38.608H31.685c-.616 0-1.086.5-1.086 1.086 0 .587.5 1.085 1.086 1.085H42.1c.616 0 1.085-.498 1.085-1.085s-.47-1.086-1.085-1.086ZM42.1 45.18H31.685c-.616 0-1.086.498-1.086 1.085 0 .616.5 1.086 1.086 1.086H42.1c.616 0 1.085-.499 1.085-1.086.03-.616-.47-1.085-1.085-1.085ZM27.314 25.494h-.94c-.615 0-1.085.5-1.085 1.086 0 .616.499 1.086 1.086 1.086h.939c.616 0 1.085-.5 1.085-1.086.03-.587-.47-1.085-1.085-1.085ZM27.314 32.066h-.94c-.615 0-1.085.499-1.085 1.086 0 .616.499 1.085 1.086 1.085h.939c.616 0 1.085-.498 1.085-1.085.03-.616-.47-1.086-1.085-1.086ZM27.314 38.608h-.94c-.615 0-1.085.5-1.085 1.086 0 .587.499 1.085 1.086 1.085h.939c.616 0 1.085-.498 1.085-1.085s-.47-1.086-1.085-1.086ZM27.314 45.18h-.94c-.615 0-1.085.498-1.085 1.085 0 .616.499 1.086 1.086 1.086h.939c.616 0 1.085-.499 1.085-1.086.03-.616-.47-1.085-1.085-1.085Z" fill="#E30613"/></svg><svg fill="none" viewBox="0 0 70 70" id="solutions--svg--sol8-icon" xmlns="http://www.w3.org/2000/svg"><path d="M35 1.467c18.512 0 33.533 15.05 33.533 33.533S53.483 68.533 35 68.533C16.488 68.533 1.467 53.483 1.467 35S16.517 1.467 35 1.467ZM35 0C15.666 0 0 15.666 0 35s15.666 35 35 35 35-15.666 35-35c.03-19.334-15.666-35-35-35Z" fill="#E30613"/><path d="M39.9 32.536H20.713a.851.851 0 0 0 0 1.701H39.9a.851.851 0 0 0 0-1.701ZM39.9 37.934H20.713a.851.851 0 0 0 0 1.702H39.9a.851.851 0 0 0 0-1.702ZM39.9 43.362H20.713a.851.851 0 0 0 0 1.701H39.9a.851.851 0 0 0 0-1.701Z" fill="#E30613"/><path d="M41.836 14.141c-8.479 0-15.344 5.457-15.344 12.146 0 .088.03.176.03.293h-8.89a2.817 2.817 0 0 0-2.816 2.817V48.26a2.817 2.817 0 0 0 2.816 2.816h.968l5.486 5.047a.872.872 0 0 0 .587.234c.147 0 .294-.03.41-.117a.867.867 0 0 0 .44-.91l-.791-4.283h18.336a2.817 2.817 0 0 0 2.816-2.816v-10.24c.646-.146 1.291-.293 1.907-.498.969 1.056 3.433 3.491 5.927 3.491a.825.825 0 0 0 .704-.381.901.901 0 0 0 .058-.822c-.674-1.437-1.73-4.782-.733-5.75 2.259-2.17 3.52-4.9 3.52-7.716-.088-6.747-6.953-12.175-15.431-12.175Zm2.288 34.09c0 .617-.499 1.115-1.115 1.115H23.646a.84.84 0 0 0-.645.294c-.147.205-.235.44-.176.704l.499 2.787-3.873-3.55a.819.819 0 0 0-.587-.235h-1.29a1.114 1.114 0 0 1-1.115-1.114V29.367c0-.616.498-1.114 1.114-1.114H42.98c.616 0 1.115.498 1.115 1.114v18.865h.03ZM52.485 32.8c-1.466 1.467-.821 4.313-.234 6.132-1.38-.617-2.729-1.966-3.433-2.729 0-.03-.03-.088-.058-.117a.862.862 0 0 0-1.057-.411c-.645.235-1.29.41-1.936.558v-6.895a2.817 2.817 0 0 0-2.816-2.816H28.135c0-.088-.03-.176-.03-.294 0-5.75 6.132-10.444 13.672-10.444 7.54 0 13.672 4.694 13.672 10.444.058 2.435-.998 4.665-2.964 6.572Z" fill="#E30613"/></svg><svg fill="none" viewBox="0 0 70 70" id="solutions--svg--sol9-icon" xmlns="http://www.w3.org/2000/svg"><path d="M35 1.467c18.512 0 33.533 15.05 33.533 33.533S53.483 68.533 35 68.533C16.488 68.533 1.467 53.483 1.467 35S16.517 1.467 35 1.467ZM35 0C15.666 0 0 15.666 0 35s15.666 35 35 35 35-15.666 35-35c.03-19.334-15.666-35-35-35Z" fill="#E30613"/><path d="M34.941 32.975c.147.147.323.264.528.264.206 0 .44-.058.587-.205l14.17-11.97c.147-.146.264-.323.264-.528 0-.205-.058-.44-.205-.587-3.873-4.518-9.27-6.865-14.816-6.865-4.459 0-8.918 1.497-12.556 4.606-.323.264-.382.793-.118 1.115l12.146 14.17Zm-10.297-14.58a17.975 17.975 0 0 1 7.393-3.374l-5.956 5.046-1.437-1.672Zm13.965-3.433c.704.117 1.437.323 2.141.528l-10.796 9.124-.85-1.027 9.211-7.892c.294-.205.352-.469.294-.733Zm-5.692 13.114 12.029-10.18c.117-.118.205-.264.264-.44.44.264.85.586 1.29.91L33.826 29.102l-.909-1.027Zm-1.027-1.232-.91-1.027 11.384-9.593c.058-.06.117-.118.146-.147.47.205.91.44 1.409.645L31.89 26.844Zm16.693-6.484L35.645 31.303l-.792-.968 12.762-10.796.059-.059c.323.235.645.557.91.88Zm-11.588-5.633-8.948 7.628-.85-1.027 6.864-5.838c.206-.205.323-.47.264-.763.44-.058.792-.058 1.232-.058.47 0 .94 0 1.438.058ZM34.472 35.322 21.328 19.773c-.264-.322-.792-.38-1.114-.117-4.93 4.195-7.452 10.151-7.452 16.136 0 4.84 1.672 9.71 5.046 13.671 4.195 4.93 10.15 7.452 16.136 7.452 4.84 0 9.71-1.672 13.671-5.046.147-.147.264-.323.264-.528 0-.205-.058-.44-.205-.587L34.472 35.323Zm-15.52 13.144-.587.528.587-.528c-3.11-3.697-4.665-8.156-4.665-12.674 0-5.31 2.142-10.562 6.337-14.376L33.298 36.32l12.645 14.904c-3.55 2.787-7.775 4.136-12.029 4.136a19.393 19.393 0 0 1-14.962-6.894ZM52.602 22.56c-.146-.146-.322-.264-.528-.264-.205 0-.44.059-.586.206L37.318 34.53c-.147.147-.264.323-.264.528 0 .205.058.44.205.587l12.028 14.17c.147.147.323.264.528.264.206 0 .44-.059.587-.205 4.518-3.873 6.865-9.271 6.865-14.816-.059-4.4-1.555-8.86-4.665-12.498Zm-2.699 25.583L38.902 35.205l12.967-11.002c2.523 3.227 3.697 7.07 3.697 10.884.029 4.87-1.907 9.564-5.663 13.056Z" fill="#E30613"/></svg></svg>